<?xml version="1.0" encoding="UTF-8" standalone="no"?>
<!DOCTYPE svg PUBLIC "-//W3C//DTD SVG 1.1//EN"
 "http://www.w3.org/Graphics/SVG/1.1/DTD/svg11.dtd">
<!-- Generated by graphviz version 2.43.0 (0)
 -->
<!-- Title: %3 Pages: 1 -->
<svg width="434pt" height="188pt"
 viewBox="0.00 0.00 433.50 188.00" xmlns="http://www.w3.org/2000/svg" xmlns:xlink="http://www.w3.org/1999/xlink">
<g id="graph0" class="graph" transform="scale(1 1) rotate(0) translate(4 184)">
<title>%3</title>
<polygon fill="white" stroke="transparent" points="-4,4 -4,-184 429.5,-184 429.5,4 -4,4"/>
<!-- Tech Tree -->
<g id="node1" class="node">
<title>Tech Tree</title>
<polygon fill="none" stroke="black" points="110.5,-108 24.5,-108 24.5,-72 110.5,-72 110.5,-108"/>
<text text-anchor="middle" x="67.5" y="-86.3" font-family="Times,serif" font-size="14.00">Tech Tree</text>
</g>
<!-- Outline -->
<g id="node2" class="node">
<title>Outline</title>
<polygon fill="none" stroke="black" points="214,-108 145,-108 145,-72 214,-72 214,-108"/>
<text text-anchor="middle" x="179.5" y="-86.3" font-family="Times,serif" font-size="14.00">Outline</text>
</g>
<!-- Onboarding -->
<g id="node3" class="node">
<title>Onboarding</title>
<polygon fill="none" stroke="black" points="101,-180 0,-180 0,-144 101,-144 101,-180"/>
<text text-anchor="middle" x="50.5" y="-158.3" font-family="Times,serif" font-size="14.00">Onboarding</text>
</g>
<!-- Onboarding&#45;&gt;Tech Tree -->
<g id="edge1" class="edge">
<title>Onboarding&#45;&gt;Tech Tree</title>
<path fill="none" stroke="black" d="M62.75,-133.83C62.75,-133.83 62.75,-108.41 62.75,-108.41"/>
<polygon fill="black" stroke="black" points="59.25,-133.83 62.75,-143.83 66.25,-133.83 59.25,-133.83"/>
</g>
<!-- Onboarding&#45;&gt;Outline -->
<g id="edge2" class="edge">
<title>Onboarding&#45;&gt;Outline</title>
<path fill="none" stroke="black" d="M111,-156C111,-156 115,-156 115,-156 115,-156 115,-90 115,-90 115,-90 129.65,-90 144.98,-90"/>
<polygon fill="black" stroke="black" points="111,-152.5 101,-156 111,-159.5 111,-152.5"/>
</g>
<!-- Proces Listy Zakupowej -->
<g id="node4" class="node">
<title>Proces Listy Zakupowej</title>
<polygon fill="none" stroke="black" points="305.5,-180 119.5,-180 119.5,-144 305.5,-144 305.5,-180"/>
<text text-anchor="middle" x="212.5" y="-158.3" font-family="Times,serif" font-size="14.00">Proces Listy Zakupowej</text>
</g>
<!-- Proces Listy Zakupowej&#45;&gt;Tech Tree -->
<g id="edge3" class="edge">
<title>Proces Listy Zakupowej&#45;&gt;Tech Tree</title>
<path fill="none" stroke="black" d="M109.27,-168C109.27,-168 105.75,-168 105.75,-168 105.75,-168 105.75,-131.13 105.75,-108.09"/>
<polygon fill="black" stroke="black" points="109.27,-171.5 119.27,-168 109.27,-164.5 109.27,-171.5"/>
</g>
<!-- Proces Listy Zakupowej&#45;&gt;Outline -->
<g id="edge4" class="edge">
<title>Proces Listy Zakupowej&#45;&gt;Outline</title>
<path fill="none" stroke="black" d="M179.5,-133.83C179.5,-133.83 179.5,-108.41 179.5,-108.41"/>
<polygon fill="black" stroke="black" points="176,-133.83 179.5,-143.83 183,-133.83 176,-133.83"/>
</g>
<!-- Kubernetes -->
<g id="node5" class="node">
<title>Kubernetes</title>
<polygon fill="none" stroke="black" points="424,-36 325,-36 325,0 424,0 424,-36"/>
<text text-anchor="middle" x="374.5" y="-14.3" font-family="Times,serif" font-size="14.00">Kubernetes</text>
</g>
<!-- FluxCD -->
<g id="node6" class="node">
<title>FluxCD</title>
<polygon fill="none" stroke="black" points="409.5,-108 339.5,-108 339.5,-72 409.5,-72 409.5,-108"/>
<text text-anchor="middle" x="374.5" y="-86.3" font-family="Times,serif" font-size="14.00">FluxCD</text>
</g>
<!-- FluxCD&#45;&gt;Kubernetes -->
<g id="edge5" class="edge">
<title>FluxCD&#45;&gt;Kubernetes</title>
<path fill="none" stroke="black" d="M374.5,-61.83C374.5,-61.83 374.5,-36.41 374.5,-36.41"/>
<polygon fill="black" stroke="black" points="371,-61.83 374.5,-71.83 378,-61.83 371,-61.83"/>
</g>
<!-- Syncronium -->
<g id="node7" class="node">
<title>Syncronium</title>
<g id="a_node7"><a xlink:href="http://example.com" xlink:title="Syncronium">
<polygon fill="none" stroke="black" points="425.5,-180 323.5,-180 323.5,-144 425.5,-144 425.5,-180"/>
<text text-anchor="middle" x="374.5" y="-158.3" font-family="Times,serif" font-size="14.00" fill="blue">Syncronium</text>
</a>
</g>
</g>
<!-- Syncronium&#45;&gt;FluxCD -->
<g id="edge6" class="edge">
<title>Syncronium&#45;&gt;FluxCD</title>
<path fill="none" stroke="black" d="M374.5,-133.83C374.5,-133.83 374.5,-108.41 374.5,-108.41"/>
<polygon fill="black" stroke="black" points="371,-133.83 374.5,-143.83 378,-133.83 371,-133.83"/>
</g>
</g>
</svg>
