<?xml version="1.0" encoding="UTF-8" standalone="no"?>
<!DOCTYPE svg PUBLIC "-//W3C//DTD SVG 1.1//EN"
 "http://www.w3.org/Graphics/SVG/1.1/DTD/svg11.dtd">
<!-- Generated by graphviz version 2.43.0 (0)
 -->
<!-- Title: %3 Pages: 1 -->
<svg width="555pt" height="332pt"
 viewBox="0.00 0.00 555.00 332.00" xmlns="http://www.w3.org/2000/svg" xmlns:xlink="http://www.w3.org/1999/xlink">
<g id="graph0" class="graph" transform="scale(1 1) rotate(0) translate(4 328)">
<title>%3</title>
<polygon fill="white" stroke="transparent" points="-4,4 -4,-328 551,-328 551,4 -4,4"/>
<!-- Forum -->
<g id="node1" class="node">
<title>Forum</title>
<g id="a_node1"><a xlink:href="https://forum.hsp.sh/" xlink:title="Forum">
<polygon fill="none" stroke="black" points="87,-324 24,-324 24,-288 87,-288 87,-324"/>
<text text-anchor="middle" x="55.5" y="-302.3" font-family="Times,serif" font-size="14.00" fill="blue">Forum</text>
</a>
</g>
</g>
<!-- Nixosidło -->
<g id="node2" class="node">
<title>Nixosidło</title>
<g id="a_node2"><a xlink:href="ssh://artur.at.hsp.sh" xlink:title="Nixosidło">
<polygon fill="none" stroke="black" points="97,-252 14,-252 14,-216 97,-216 97,-252"/>
<text text-anchor="middle" x="55.5" y="-230.3" font-family="Times,serif" font-size="14.00" fill="blue">Nixosidło</text>
</a>
</g>
</g>
<!-- Forum&#45;&gt;Nixosidło -->
<g id="edge1" class="edge">
<title>Forum&#45;&gt;Nixosidło</title>
<path fill="none" stroke="black" d="M55.5,-277.83C55.5,-277.83 55.5,-252.41 55.5,-252.41"/>
<polygon fill="black" stroke="black" points="52,-277.83 55.5,-287.83 59,-277.83 52,-277.83"/>
</g>
<!-- Serwer Artur -->
<g id="node3" class="node">
<title>Serwer Artur</title>
<polygon fill="none" stroke="black" points="111,-108 0,-108 0,-72 111,-72 111,-108"/>
<text text-anchor="middle" x="55.5" y="-86.3" font-family="Times,serif" font-size="14.00">Serwer Artur</text>
</g>
<!-- Nixosidło&#45;&gt;Serwer Artur -->
<g id="edge2" class="edge">
<title>Nixosidło&#45;&gt;Serwer Artur</title>
<path fill="none" stroke="black" d="M30.75,-205.76C30.75,-205.76 30.75,-108.09 30.75,-108.09"/>
<polygon fill="black" stroke="black" points="27.25,-205.76 30.75,-215.76 34.25,-205.76 27.25,-205.76"/>
</g>
<!-- Proxmoxx -->
<g id="node4" class="node">
<title>Proxmoxx</title>
<g id="a_node4"><a xlink:href="https://192.168.88.239:8006/" xlink:title="Proxmoxx">
<polygon fill="none" stroke="black" points="135.5,-180 47.5,-180 47.5,-144 135.5,-144 135.5,-180"/>
<text text-anchor="middle" x="91.5" y="-158.3" font-family="Times,serif" font-size="14.00" fill="blue">Proxmoxx</text>
</a>
</g>
</g>
<!-- Nixosidło&#45;&gt;Proxmoxx -->
<g id="edge3" class="edge">
<title>Nixosidło&#45;&gt;Proxmoxx</title>
<path fill="none" stroke="black" d="M72.25,-205.83C72.25,-205.83 72.25,-180.41 72.25,-180.41"/>
<polygon fill="black" stroke="black" points="68.75,-205.83 72.25,-215.83 75.75,-205.83 68.75,-205.83"/>
</g>
<!-- Mikrotik -->
<g id="node5" class="node">
<title>Mikrotik</title>
<polygon fill="none" stroke="black" points="216,-36 139,-36 139,0 216,0 216,-36"/>
<text text-anchor="middle" x="177.5" y="-14.3" font-family="Times,serif" font-size="14.00">Mikrotik</text>
</g>
<!-- Serwer Artur&#45;&gt;Mikrotik -->
<g id="edge5" class="edge">
<title>Serwer Artur&#45;&gt;Mikrotik</title>
<path fill="none" stroke="black" d="M55.5,-61.83C55.5,-61.83 55.5,-18 55.5,-18 55.5,-18 103.16,-18 138.9,-18"/>
<polygon fill="black" stroke="black" points="52,-61.83 55.5,-71.83 59,-61.83 52,-61.83"/>
</g>
<!-- Proxmoxx&#45;&gt;Serwer Artur -->
<g id="edge4" class="edge">
<title>Proxmoxx&#45;&gt;Serwer Artur</title>
<path fill="none" stroke="black" d="M79.25,-133.83C79.25,-133.83 79.25,-108.41 79.25,-108.41"/>
<polygon fill="black" stroke="black" points="75.75,-133.83 79.25,-143.83 82.75,-133.83 75.75,-133.83"/>
</g>
<!-- Cringe Box -->
<g id="node6" class="node">
<title>Cringe Box</title>
<g id="a_node6"><a xlink:href="https://cringe.at.hsp.sh/" xlink:title="Cringe Box">
<polygon fill="none" stroke="black" points="225.5,-108 129.5,-108 129.5,-72 225.5,-72 225.5,-108"/>
<text text-anchor="middle" x="177.5" y="-86.3" font-family="Times,serif" font-size="14.00" fill="blue">Cringe Box</text>
</a>
</g>
</g>
<!-- Cringe Box&#45;&gt;Mikrotik -->
<g id="edge6" class="edge">
<title>Cringe Box&#45;&gt;Mikrotik</title>
<path fill="none" stroke="black" d="M177.5,-61.83C177.5,-61.83 177.5,-36.41 177.5,-36.41"/>
<polygon fill="black" stroke="black" points="174,-61.83 177.5,-71.83 181,-61.83 174,-61.83"/>
</g>
<!-- Mqtt -->
<g id="node7" class="node">
<title>Mqtt</title>
<polygon fill="none" stroke="black" points="378.5,-180 324.5,-180 324.5,-144 378.5,-144 378.5,-180"/>
<text text-anchor="middle" x="351.5" y="-158.3" font-family="Times,serif" font-size="14.00">Mqtt</text>
</g>
<!-- Pierdolony Srattus Gdzie On Kurwa Jest -->
<g id="node8" class="node">
<title>Pierdolony Srattus Gdzie On Kurwa Jest</title>
<polygon fill="none" stroke="black" points="547,-108 244,-108 244,-72 547,-72 547,-108"/>
<text text-anchor="middle" x="395.5" y="-86.3" font-family="Times,serif" font-size="14.00">Pierdolony Srattus Gdzie On Kurwa Jest</text>
</g>
<!-- Mqtt&#45;&gt;Pierdolony Srattus Gdzie On Kurwa Jest -->
<g id="edge7" class="edge">
<title>Mqtt&#45;&gt;Pierdolony Srattus Gdzie On Kurwa Jest</title>
<path fill="none" stroke="black" d="M351.5,-133.83C351.5,-133.83 351.5,-108.41 351.5,-108.41"/>
<polygon fill="black" stroke="black" points="348,-133.83 351.5,-143.83 355,-133.83 348,-133.83"/>
</g>
<!-- Pierdolony Srattus Gdzie On Kurwa Jest&#45;&gt;Mikrotik -->
<g id="edge9" class="edge">
<title>Pierdolony Srattus Gdzie On Kurwa Jest&#45;&gt;Mikrotik</title>
<path fill="none" stroke="black" d="M395.5,-61.83C395.5,-61.83 395.5,-18 395.5,-18 395.5,-18 278.87,-18 216.22,-18"/>
<polygon fill="black" stroke="black" points="392,-61.83 395.5,-71.83 399,-61.83 392,-61.83"/>
</g>
<!-- Node Red -->
<g id="node9" class="node">
<title>Node Red</title>
<polygon fill="none" stroke="black" points="482.5,-180 396.5,-180 396.5,-144 482.5,-144 482.5,-180"/>
<text text-anchor="middle" x="439.5" y="-158.3" font-family="Times,serif" font-size="14.00">Node Red</text>
</g>
<!-- Node Red&#45;&gt;Pierdolony Srattus Gdzie On Kurwa Jest -->
<g id="edge8" class="edge">
<title>Node Red&#45;&gt;Pierdolony Srattus Gdzie On Kurwa Jest</title>
<path fill="none" stroke="black" d="M439.5,-133.83C439.5,-133.83 439.5,-108.41 439.5,-108.41"/>
<polygon fill="black" stroke="black" points="436,-133.83 439.5,-143.83 443,-133.83 436,-133.83"/>
</g>
</g>
</svg>
